<svg xmlns="http://www.w3.org/2000/svg" viewBox="0 0 519.34 362.59"><defs><style>.cls-1{fill:#9112ff;}.cls-2{fill:#d35400;}.cls-3{fill:#f7931e;}.cls-4{fill:#eb974e;}.cls-5{fill:#42210b;}</style></defs><g id="Layer_2" data-name="Layer 2"><g id="Layer_1-2" data-name="Layer 1"><polygon class="cls-1" points="250.96 326.83 382.74 98.57 119.17 98.57 250.96 326.83"/><path class="cls-1" d="M88.47,81.15,251,362.59,413.45,81.15ZM252.72,331.92a2,2,0,0,1-1.76,1,2.05,2.05,0,0,1-1.77-1L113.88,97.55a2,2,0,0,1,1.76-3.06H386.27A2,2,0,0,1,388,97.55Z"/><polygon class="cls-2" points="519.34 125.42 509.22 125.42 460.47 200.65 509.22 272.75 519.34 272.75 470.59 200.65 519.34 125.42"/><polygon class="cls-2" points="10.12 125.42 0 125.42 52.23 200.47 0 272.75 10.12 272.75 62.34 200.47 10.12 125.42"/><polygon class="cls-3" points="509.22 125.42 10.12 125.42 62.34 200.47 10.12 272.75 509.22 272.75 460.47 200.65 509.22 125.42"/><path class="cls-2" d="M351.15,75.1H147.27c-17.07,0-26.22-20.38-14.62-32.9,10.58-11.41,25.24-21.13,42.75-28.35a174.83,174.83,0,0,1,27.83-8.78c4.46-1,9.05-1.89,13.71-2.62A210,210,0,0,1,240.75.17Q245,0,249.21,0c1.24,0,2.48,0,3.71,0a214.71,214.71,0,0,1,21.5,1.45c3.74.45,7.44,1,11.07,1.63a188.92,188.92,0,0,1,19.6,4.51q5.18,1.48,10.09,3.23a153.11,153.11,0,0,1,17.74,7.5C346.09,24.92,357.25,33,365.77,42.2,377.37,54.72,368.22,75.1,351.15,75.1Z"/><path class="cls-4" d="M203.23,5.07,184.29,35.63c-3.72,6-10.08,8.26-14.22,5l-.15-.11c-4.13-3.21-4.47-10.68-.75-16.68l6.23-10A174.83,174.83,0,0,1,203.23,5.07Z"/><path class="cls-4" d="M240.75.17l-22,35.46c-3.72,6-10.08,8.26-14.22,5l-.14-.11c-4.14-3.21-4.47-10.68-.75-16.68L216.94,2.45A210,210,0,0,1,240.75.17Z"/><path class="cls-4" d="M274.42,1.48,253.25,35.63c-3.72,6-10.08,8.26-14.21,5l-.15-.11c-4.14-3.21-4.47-10.68-.75-16.68L252.92,0A214.71,214.71,0,0,1,274.42,1.48Z"/><path class="cls-4" d="M305.09,7.62l-17.37,28c-3.71,6-10.07,8.26-14.2,5l-.15-.11c-4.14-3.21-4.47-10.68-.75-16.68L285.49,3.11A188.92,188.92,0,0,1,305.09,7.62Z"/><path class="cls-4" d="M332.92,18.35,322.2,35.63c-3.71,6-10.08,8.26-14.2,5l-.15-.11c-4.13-3.21-4.47-10.68-.75-16.68l8.08-13A153.11,153.11,0,0,1,332.92,18.35Z"/><circle class="cls-2" cx="82.62" cy="199.09" r="14.87" transform="translate(-43.3 24.14) rotate(-13.21)"/><circle class="cls-2" cx="435.86" cy="199.09" r="14.87" transform="translate(-13.12 366.51) rotate(-45)"/><path class="cls-5" d="M109.68,207.58V189c0-8.9,6.34-14.83,15.84-14.83s15.77,6,15.77,14.29v.67a.81.81,0,0,1-.87.88h-3c-.54,0-.87-.27-.87-.74v-.74c0-6-4.32-10.18-11-10.18s-11,4.18-11,10.51v18.88c0,6.33,4.58,10.51,11.25,10.51s10.79-3.84,10.79-9.91v-6.06a.33.33,0,0,0-.34-.34h-9.64a.81.81,0,0,1-.87-.88v-2.42a.81.81,0,0,1,.87-.88h13.89a.81.81,0,0,1,.87.88v8.49c0,9.77-6.27,15.3-15.77,15.3S109.68,216.41,109.68,207.58Z"/><path class="cls-5" d="M178.63,221.2l-9.84-20.76a.53.53,0,0,0-.4-.27H157.13a.31.31,0,0,0-.33.34V221a.82.82,0,0,1-.88.88h-3A.82.82,0,0,1,152,221V175.5a.82.82,0,0,1,.88-.88h17.25c7.75,0,12.94,5.19,12.94,12.94,0,6.41-3.71,10.92-9.43,12.27-.27.07-.27.2-.21.41l10.05,20.62c.27.61,0,1-.68,1h-3.1A1.21,1.21,0,0,1,178.63,221.2ZM156.8,179.14V196a.32.32,0,0,0,.33.34H169.6c5.19,0,8.76-3.51,8.76-8.7s-3.57-8.83-8.76-8.83H157.13A.32.32,0,0,0,156.8,179.14Z"/><path class="cls-5" d="M222.91,221.13l-2.69-8.22c-.07-.14-.14-.27-.34-.27H199.8c-.21,0-.27.13-.34.27l-2.63,8.22a.87.87,0,0,1-.94.74h-3.24a.71.71,0,0,1-.74-1l14.83-45.43a.87.87,0,0,1,.94-.74H212a.87.87,0,0,1,.94.74l14.89,45.43a.7.7,0,0,1-.74,1h-3.23A.89.89,0,0,1,222.91,221.13Zm-21.7-12.4h17.32c.21,0,.34-.14.27-.41L210,180.76c-.07-.34-.34-.34-.4,0l-8.7,27.56C200.87,208.59,201,208.73,201.21,208.73Z"/><path class="cls-5" d="M236.67,221V175.57a.81.81,0,0,1,.87-.88h3.17a1.11,1.11,0,0,1,1,.61l12.34,19.48c.13.27.27.27.4,0l12.4-19.48a1.11,1.11,0,0,1,1-.61H271a.82.82,0,0,1,.88.88V221a.82.82,0,0,1-.88.88h-3a.82.82,0,0,1-.88-.88v-37.2c0-.34-.27-.34-.4-.07l-10.65,16.85a1.11,1.11,0,0,1-1,.61h-1.55a1.1,1.1,0,0,1-1-.61l-10.65-16.85c-.14-.27-.41-.27-.41.07V221a.82.82,0,0,1-.88.88h-3A.81.81,0,0,1,236.67,221Z"/><path class="cls-5" d="M284.59,221V175.57a.82.82,0,0,1,.88-.88h3.16a1.1,1.1,0,0,1,1,.61L302,194.78c.13.27.27.27.4,0l12.4-19.48a1.11,1.11,0,0,1,1-.61H319a.82.82,0,0,1,.88.88V221a.82.82,0,0,1-.88.88h-3a.82.82,0,0,1-.88-.88v-37.2c0-.34-.27-.34-.4-.07L304,200.57a1.11,1.11,0,0,1-1,.61h-1.55a1.11,1.11,0,0,1-1-.61l-10.65-16.85c-.14-.27-.41-.27-.41.07V221a.81.81,0,0,1-.87.88h-3A.82.82,0,0,1,284.59,221Z"/><path class="cls-5" d="M342.89,220.93V201.18a.94.94,0,0,0-.13-.41l-13.82-25c-.34-.61-.07-1.08.61-1.08h3.23a1,1,0,0,1,1,.61l11.26,20.35c.13.2.27.2.4,0l11.33-20.35a1,1,0,0,1,1-.61H361c.68,0,1,.47.61,1.08l-13.82,25a1.09,1.09,0,0,0-.13.41v19.75a.81.81,0,0,1-.88.87h-3A.81.81,0,0,1,342.89,220.93Z"/><path class="cls-5" d="M373.43,175.7l-4.86,12.13a1,1,0,0,1-1,.68h-2.09a.71.71,0,0,1-.74-1l3.91-12.07a.88.88,0,0,1,.94-.74h3.17C373.36,174.69,373.63,175.09,373.43,175.7Z"/><path class="cls-5" d="M377.67,209.81v-1.89a.82.82,0,0,1,.88-.88h2.9a.81.81,0,0,1,.87.88v1.62c0,5.05,4.52,8.69,11.93,8.69,7.08,0,10.59-3.3,10.59-8s-3.64-7-12.41-10.65c-8.08-3.23-14.08-5.73-14.08-13.48s5.66-11.93,14.83-11.93c10,0,16,5.12,16,12.81v1.28a.81.81,0,0,1-.88.87h-3a.81.81,0,0,1-.87-.87v-1c0-5.06-4.05-8.9-11.59-8.9-6.34,0-9.84,2.7-9.84,7.62s3.77,6.67,11.92,9.84c8.3,3.37,14.63,6.53,14.63,14.22,0,7.34-5.66,12.4-15.7,12.4S377.67,217.42,377.67,209.81Z"/></g></g></svg>